<mxfile host="app.diagrams.net" modified="2023-10-29T08:22:31.221Z" agent="Mozilla/5.0 (Windows NT 10.0; Win64; x64) AppleWebKit/537.36 (KHTML, like Gecko) Chrome/118.0.0.0 Safari/537.36 Edg/118.0.2088.69" etag="YN77BPgBkhkZ-nwMqach" version="22.0.8" type="device">
  <diagram name="第 1 页" id="JLBYuUZ-iOYpNerqcs-X">
    <mxGraphModel dx="1042" dy="543" grid="1" gridSize="10" guides="1" tooltips="1" connect="1" arrows="1" fold="1" page="1" pageScale="1" pageWidth="1169" pageHeight="827" math="0" shadow="0">
      <root>
        <mxCell id="0" />
        <mxCell id="1" parent="0" />
        <mxCell id="gs9nCBBBDgaF2tXHJIVj-1" value="" style="rounded=0;whiteSpace=wrap;html=1;" parent="1" vertex="1">
          <mxGeometry x="580" y="80" width="120" height="60" as="geometry" />
        </mxCell>
        <mxCell id="gs9nCBBBDgaF2tXHJIVj-2" value="" style="rounded=0;whiteSpace=wrap;html=1;" parent="1" vertex="1">
          <mxGeometry x="780" y="210" width="120" height="60" as="geometry" />
        </mxCell>
        <mxCell id="gs9nCBBBDgaF2tXHJIVj-3" value="" style="rounded=0;whiteSpace=wrap;html=1;" parent="1" vertex="1">
          <mxGeometry x="580" y="350" width="120" height="60" as="geometry" />
        </mxCell>
        <mxCell id="gs9nCBBBDgaF2tXHJIVj-4" value="" style="rounded=0;whiteSpace=wrap;html=1;" parent="1" vertex="1">
          <mxGeometry x="220" y="280" width="120" height="60" as="geometry" />
        </mxCell>
        <mxCell id="gs9nCBBBDgaF2tXHJIVj-5" value="&lt;font style=&quot;font-size: 16px;&quot;&gt;ubantu&lt;/font&gt;" style="text;html=1;strokeColor=none;fillColor=none;align=center;verticalAlign=middle;whiteSpace=wrap;rounded=0;" parent="1" vertex="1">
          <mxGeometry x="610" y="95" width="60" height="30" as="geometry" />
        </mxCell>
        <mxCell id="gs9nCBBBDgaF2tXHJIVj-6" value="" style="rounded=0;whiteSpace=wrap;html=1;" parent="1" vertex="1">
          <mxGeometry x="580" y="210" width="120" height="60" as="geometry" />
        </mxCell>
        <mxCell id="gs9nCBBBDgaF2tXHJIVj-7" value="&lt;font style=&quot;font-size: 16px;&quot;&gt;gateway&lt;/font&gt;" style="text;html=1;strokeColor=none;fillColor=none;align=center;verticalAlign=middle;whiteSpace=wrap;rounded=0;" parent="1" vertex="1">
          <mxGeometry x="610" y="225" width="60" height="30" as="geometry" />
        </mxCell>
        <mxCell id="gs9nCBBBDgaF2tXHJIVj-8" value="&lt;font style=&quot;font-size: 16px;&quot;&gt;host&lt;/font&gt;" style="text;html=1;strokeColor=none;fillColor=none;align=center;verticalAlign=middle;whiteSpace=wrap;rounded=0;" parent="1" vertex="1">
          <mxGeometry x="810" y="225" width="60" height="30" as="geometry" />
        </mxCell>
        <mxCell id="gs9nCBBBDgaF2tXHJIVj-9" value="&lt;font style=&quot;font-size: 16px;&quot;&gt;onix&lt;/font&gt;" style="text;html=1;strokeColor=none;fillColor=none;align=center;verticalAlign=middle;whiteSpace=wrap;rounded=0;" parent="1" vertex="1">
          <mxGeometry x="610" y="365" width="60" height="30" as="geometry" />
        </mxCell>
        <mxCell id="gs9nCBBBDgaF2tXHJIVj-10" value="&lt;font style=&quot;font-size: 16px;&quot;&gt;tap1&lt;/font&gt;" style="text;html=1;strokeColor=none;fillColor=none;align=center;verticalAlign=middle;whiteSpace=wrap;rounded=0;" parent="1" vertex="1">
          <mxGeometry x="250" y="295" width="60" height="30" as="geometry" />
        </mxCell>
        <mxCell id="gs9nCBBBDgaF2tXHJIVj-11" value="" style="rounded=0;whiteSpace=wrap;html=1;" parent="1" vertex="1">
          <mxGeometry x="390" y="350" width="120" height="60" as="geometry" />
        </mxCell>
        <mxCell id="gs9nCBBBDgaF2tXHJIVj-12" value="&lt;font style=&quot;font-size: 16px;&quot;&gt;br0&lt;/font&gt;" style="text;html=1;strokeColor=none;fillColor=none;align=center;verticalAlign=middle;whiteSpace=wrap;rounded=0;" parent="1" vertex="1">
          <mxGeometry x="420" y="365" width="60" height="30" as="geometry" />
        </mxCell>
        <mxCell id="gs9nCBBBDgaF2tXHJIVj-13" value="" style="rounded=0;whiteSpace=wrap;html=1;" parent="1" vertex="1">
          <mxGeometry x="220" y="430" width="120" height="60" as="geometry" />
        </mxCell>
        <mxCell id="gs9nCBBBDgaF2tXHJIVj-14" value="&lt;font style=&quot;font-size: 16px;&quot;&gt;tap0&lt;/font&gt;" style="text;html=1;strokeColor=none;fillColor=none;align=center;verticalAlign=middle;whiteSpace=wrap;rounded=0;" parent="1" vertex="1">
          <mxGeometry x="250" y="445" width="60" height="30" as="geometry" />
        </mxCell>
        <mxCell id="gs9nCBBBDgaF2tXHJIVj-16" value="5a:5a:5a:5a:5a:20" style="text;html=1;strokeColor=none;fillColor=none;align=center;verticalAlign=middle;whiteSpace=wrap;rounded=0;" parent="1" vertex="1">
          <mxGeometry x="585" y="410" width="110" height="30" as="geometry" />
        </mxCell>
        <mxCell id="gs9nCBBBDgaF2tXHJIVj-17" value="192.168.6.2" style="text;html=1;strokeColor=none;fillColor=none;align=center;verticalAlign=middle;whiteSpace=wrap;rounded=0;" parent="1" vertex="1">
          <mxGeometry x="585" y="270" width="110" height="30" as="geometry" />
        </mxCell>
        <mxCell id="gs9nCBBBDgaF2tXHJIVj-18" value="192.168.6.128" style="text;html=1;strokeColor=none;fillColor=none;align=center;verticalAlign=middle;whiteSpace=wrap;rounded=0;" parent="1" vertex="1">
          <mxGeometry x="585" y="140" width="110" height="30" as="geometry" />
        </mxCell>
        <mxCell id="gs9nCBBBDgaF2tXHJIVj-19" value="5a:5a:5a:5a:5a:22" style="text;html=1;strokeColor=none;fillColor=none;align=center;verticalAlign=middle;whiteSpace=wrap;rounded=0;" parent="1" vertex="1">
          <mxGeometry x="395" y="414" width="110" height="20" as="geometry" />
        </mxCell>
        <mxCell id="gs9nCBBBDgaF2tXHJIVj-20" value="5a:5a:5a:5a:5a:44" style="text;html=1;strokeColor=none;fillColor=none;align=center;verticalAlign=middle;whiteSpace=wrap;rounded=0;" parent="1" vertex="1">
          <mxGeometry x="225" y="340" width="110" height="30" as="geometry" />
        </mxCell>
        <mxCell id="gs9nCBBBDgaF2tXHJIVj-21" value="5a:5a:5a:5a:5a:33" style="text;html=1;strokeColor=none;fillColor=none;align=center;verticalAlign=middle;whiteSpace=wrap;rounded=0;" parent="1" vertex="1">
          <mxGeometry x="225" y="490" width="110" height="30" as="geometry" />
        </mxCell>
        <mxCell id="gs9nCBBBDgaF2tXHJIVj-22" value="虚拟网卡192.168.6.1" style="text;html=1;strokeColor=none;fillColor=none;align=center;verticalAlign=middle;whiteSpace=wrap;rounded=0;" parent="1" vertex="1">
          <mxGeometry x="785" y="270" width="110" height="30" as="geometry" />
        </mxCell>
        <mxCell id="gs9nCBBBDgaF2tXHJIVj-23" value="用于qemu和外界通信" style="text;html=1;strokeColor=none;fillColor=none;align=center;verticalAlign=middle;whiteSpace=wrap;rounded=0;" parent="1" vertex="1">
          <mxGeometry x="217.5" y="530" width="125" height="30" as="geometry" />
        </mxCell>
        <mxCell id="T-VVE9fXCNem5R3McRJn-1" value="192.168.6.22" style="text;html=1;strokeColor=none;fillColor=none;align=center;verticalAlign=middle;whiteSpace=wrap;rounded=0;" vertex="1" parent="1">
          <mxGeometry x="395" y="434" width="110" height="24" as="geometry" />
        </mxCell>
        <mxCell id="T-VVE9fXCNem5R3McRJn-2" value="192.168.6.44" style="text;html=1;strokeColor=none;fillColor=none;align=center;verticalAlign=middle;whiteSpace=wrap;rounded=0;" vertex="1" parent="1">
          <mxGeometry x="225" y="365" width="110" height="20" as="geometry" />
        </mxCell>
        <mxCell id="T-VVE9fXCNem5R3McRJn-3" value="192.168.6.33" style="text;html=1;strokeColor=none;fillColor=none;align=center;verticalAlign=middle;whiteSpace=wrap;rounded=0;" vertex="1" parent="1">
          <mxGeometry x="225" y="510" width="110" height="30" as="geometry" />
        </mxCell>
      </root>
    </mxGraphModel>
  </diagram>
</mxfile>
